<svg width="847" height="210" viewBox="0 0 847 210" fill="none" xmlns="http://www.w3.org/2000/svg">
<path d="M306.74 72.1001V79.3201C312.76 72.7001 321.19 69.0901 331.57 69.0901C353.24 69.0901 364.98 85.0401 364.98 114.24V147.35H350.98V114.24C350.98 88.0501 346.46 80.3801 330.51 80.3801C314.56 80.3801 307.48 88.3601 306.73 107.47V147.35H292.73V72.1001H306.73H306.74Z" fill="#070300"/>
<path d="M382.28 109.72C382.28 85.4901 398.68 69.0801 423.22 69.0801C447.76 69.0801 464.31 85.4801 464.31 109.72C464.31 133.96 447.91 150.35 423.37 150.35C398.83 150.35 382.28 134.1 382.28 109.72ZM397.33 109.72C397.33 130.34 405 139.07 423.22 139.07C441.44 139.07 449.26 130.34 449.26 109.72C449.26 89.1001 441.43 80.3701 423.22 80.3701C405.01 80.3701 397.33 89.1001 397.33 109.72Z" fill="#070300"/>
<path d="M481.61 147.34V72.0901H495.61V84.8801C502.68 76.7501 513.22 72.0901 525.86 72.0901V83.3801C505.39 83.3801 496.36 91.8101 495.61 112.13V147.35H481.61V147.34Z" fill="#070300"/>
<path d="M533.38 109.72C533.38 85.4901 549.78 69.0801 574.32 69.0801C598.86 69.0801 615.41 85.4801 615.41 109.72C615.41 133.96 599.01 150.35 574.47 150.35C549.93 150.35 533.38 134.1 533.38 109.72ZM548.43 109.72C548.43 130.34 556.1 139.07 574.32 139.07C592.54 139.07 600.36 130.34 600.36 109.72C600.36 89.1001 592.53 80.3701 574.32 80.3701C556.11 80.3701 548.43 89.1001 548.43 109.72Z" fill="#070300"/>
<path d="M628.94 109.72C628.94 85.4901 645.34 69.0801 669.88 69.0801C694.42 69.0801 710.97 85.4801 710.97 109.72C710.97 133.96 694.57 150.35 670.03 150.35C645.49 150.35 628.94 134.1 628.94 109.72ZM643.99 109.72C643.99 130.34 651.66 139.07 669.88 139.07C688.1 139.07 695.92 130.34 695.92 109.72C695.92 89.1001 688.09 80.3701 669.88 80.3701C651.67 80.3701 643.99 89.1001 643.99 109.72Z" fill="#070300"/>
<path d="M721.5 72.1H735.05V55.55H749.05V72.1H768.62V83.84H749.05V128.54C749.05 136.37 751.61 138.62 760.79 138.62C760.79 138.62 762.6 138.62 765.76 137.11V148.85C762.3 150.36 760.19 150.36 760.19 150.36C743.18 150.36 735.06 141.18 735.06 127.18V83.84H721.51V72.1H721.5Z" fill="#070300"/>
<path d="M794.64 124.47C796.3 134.4 801.26 138.32 812.55 138.32C824.74 138.32 832.11 133.65 832.11 126.13C832.11 107.02 783.35 118.3 783.35 92.2701C783.35 79.1801 795.69 69.0901 811.94 69.0901C828.19 69.0901 842.94 79.4701 844.6 92.5701L830.6 94.0801C828.94 84.4501 823.98 80.3801 813.59 80.3801C803.2 80.3801 797.34 84.1401 797.34 90.0101C797.34 106.26 846.1 96.4801 846.1 125.23C846.1 140.13 833.16 150.36 814.34 150.36C795.52 150.36 782.13 140.73 780.63 126.88L794.63 124.47H794.64Z" fill="#070300"/>
<path d="M0 89.05L1.18 92.65C1.63 94.04 2.12 95.43 2.64 96.82C8.01 111.55 16.24 127.04 26.63 141.86C52.6 178.91 88.14 205.83 115.06 208.87C116.47 209.06 118.05 209.17 119.66 209.17H120.09C122.35 209.2 124.64 209 126.83 208.6C153.82 204.45 187.17 176.93 211.65 138.56C236.44 99.7 245.45 60.07 234.63 37.55C233.97 36.13 233.17 34.7 232.22 33.35C232.08 33.12 231.92 32.92 231.77 32.71C231.58 32.43 231.41 32.19 231.23 31.96L231.02 31.7C230.78 31.39 230.53 31.09 230.27 30.76C229.68 30.08 229.07 29.39 228.45 28.75L228.09 28.39C210.19 10.28 166.09 -0.840032 115.86 0.0499675C109.76 0.149968 103.75 0.429968 97.9 0.879968C95.64 1.04997 93.4 1.25997 91.2 1.48997L89.1 1.69997L87.8 2.96997L0 89.05ZM85.74 22V84.65H21.85L85.74 22ZM15.65 96.82H97.9V13.08C103.79 12.59 109.89 12.32 116.07 12.21C161.74 11.41 204.26 21.57 219.47 36.96L219.78 37.27C220.14 37.65 220.58 38.14 220.98 38.61C221.15 38.82 221.31 39.03 221.48 39.24L221.64 39.43C221.67 39.48 221.78 39.62 221.87 39.76L222.13 40.12C222.13 40.12 222.16 40.15 222.18 40.19C222.74 40.99 223.2 41.81 223.57 42.6L223.64 42.76C232.46 60.98 223.31 97.68 201.41 132.02C179.09 167.02 148.31 192.99 124.83 196.6C123.23 196.88 121.72 197.02 120.09 197C118.82 197.02 117.68 196.95 116.58 196.79C92.77 194.1 60.67 169.22 36.59 134.88C27.78 122.3 20.64 109.29 15.66 96.81L15.65 96.82Z" fill="#070300"/>
</svg>
