<svg width="847" height="210" viewBox="0 0 847 210" fill="none" xmlns="http://www.w3.org/2000/svg">
<path d="M307.09 72.2302V79.4502C313.11 72.8302 321.54 69.2202 331.92 69.2202C353.59 69.2202 365.33 85.1702 365.33 114.37V147.48H351.33V114.37C351.33 88.1802 346.81 80.5102 330.86 80.5102C314.91 80.5102 307.83 88.4902 307.08 107.6V147.48H293.08V72.2302H307.08H307.09Z" fill="white"/>
<path d="M382.63 109.86C382.63 85.6302 399.03 69.2202 423.57 69.2202C448.11 69.2202 464.66 85.6202 464.66 109.86C464.66 134.1 448.26 150.49 423.72 150.49C399.18 150.49 382.63 134.24 382.63 109.86ZM397.68 109.86C397.68 130.48 405.35 139.21 423.57 139.21C441.79 139.21 449.61 130.48 449.61 109.86C449.61 89.2402 441.78 80.5102 423.57 80.5102C405.36 80.5102 397.68 89.2402 397.68 109.86Z" fill="white"/>
<path d="M481.96 147.48V72.2302H495.96V85.0202C503.03 76.8902 513.57 72.2302 526.21 72.2302V83.5202C505.74 83.5202 496.71 91.9502 495.96 112.27V147.49H481.96V147.48Z" fill="white"/>
<path d="M533.73 109.86C533.73 85.6302 550.13 69.2202 574.67 69.2202C599.21 69.2202 615.76 85.6202 615.76 109.86C615.76 134.1 599.36 150.49 574.82 150.49C550.28 150.49 533.73 134.24 533.73 109.86ZM548.78 109.86C548.78 130.48 556.45 139.21 574.67 139.21C592.89 139.21 600.71 130.48 600.71 109.86C600.71 89.2402 592.88 80.5102 574.67 80.5102C556.46 80.5102 548.78 89.2402 548.78 109.86Z" fill="white"/>
<path d="M629.29 109.86C629.29 85.6302 645.69 69.2202 670.23 69.2202C694.77 69.2202 711.32 85.6202 711.32 109.86C711.32 134.1 694.92 150.49 670.38 150.49C645.84 150.49 629.29 134.24 629.29 109.86ZM644.34 109.86C644.34 130.48 652.01 139.21 670.23 139.21C688.45 139.21 696.27 130.48 696.27 109.86C696.27 89.2402 688.44 80.5102 670.23 80.5102C652.02 80.5102 644.34 89.2402 644.34 109.86Z" fill="white"/>
<path d="M721.85 72.2302H735.4V55.6802H749.4V72.2302H768.97V83.9702H749.4V128.67C749.4 136.5 751.96 138.75 761.14 138.75C761.14 138.75 762.95 138.75 766.11 137.24V148.98C762.65 150.49 760.54 150.49 760.54 150.49C743.53 150.49 735.41 141.31 735.41 127.31V83.9702H721.86V72.2302H721.85Z" fill="white"/>
<path d="M794.99 124.61C796.65 134.54 801.61 138.46 812.9 138.46C825.09 138.46 832.46 133.79 832.46 126.27C832.46 107.16 783.7 118.44 783.7 92.4102C783.7 79.3202 796.04 69.2302 812.29 69.2302C828.54 69.2302 843.29 79.6102 844.95 92.7102L830.95 94.2202C829.29 84.5902 824.33 80.5202 813.94 80.5202C803.55 80.5202 797.69 84.2802 797.69 90.1502C797.69 106.4 846.45 96.6202 846.45 125.37C846.45 140.27 833.51 150.5 814.69 150.5C795.87 150.5 782.48 140.87 780.98 127.02L794.98 124.61H794.99Z" fill="white"/>
<path d="M0.349976 89.1901L1.53003 92.7901C1.98003 94.1801 2.46999 95.5701 2.98999 96.9601C8.35999 111.69 16.59 127.18 26.98 142C52.95 179.05 88.49 205.97 115.41 209.01C116.82 209.2 118.4 209.31 120.01 209.31H120.44C122.7 209.34 124.99 209.14 127.18 208.74C154.17 204.59 187.52 177.07 212 138.7C236.79 99.8401 245.8 60.2101 234.98 37.6901C234.32 36.2701 233.52 34.8401 232.57 33.4901C232.43 33.2601 232.27 33.0601 232.12 32.8501C231.93 32.5701 231.76 32.3301 231.58 32.1001L231.37 31.8401C231.13 31.5301 230.88 31.2301 230.62 30.9001C230.03 30.2201 229.42 29.5301 228.8 28.8901L228.44 28.5301C210.55 10.4301 166.45 -0.689885 116.21 0.200115C110.11 0.300115 104.1 0.580115 98.25 1.03011C95.99 1.20011 93.75 1.41011 91.55 1.64011L89.45 1.85011L88.15 3.12011L0.359985 89.2001L0.349976 89.1901ZM86.09 22.1401V84.7901H22.2L86.09 22.1401ZM16 96.9501H98.25V13.2101C104.14 12.7201 110.24 12.4501 116.42 12.3401C162.09 11.5401 204.61 21.7001 219.82 37.0901L220.13 37.4001C220.49 37.7801 220.93 38.2701 221.33 38.7401C221.5 38.9501 221.66 39.1601 221.83 39.3701L221.99 39.5601C222.02 39.6101 222.13 39.7501 222.22 39.8901L222.48 40.2501C222.48 40.2501 222.51 40.2801 222.53 40.3201C223.09 41.1201 223.55 41.9401 223.92 42.7301L223.99 42.8901C232.81 61.1101 223.66 97.8101 201.76 132.15C179.44 167.15 148.66 193.12 125.18 196.73C123.58 197.01 122.07 197.15 120.44 197.13C119.17 197.15 118.03 197.08 116.93 196.92C93.1201 194.23 61.0199 169.35 36.9399 135.01C28.1299 122.43 20.99 109.42 16.01 96.9401L16 96.9501Z" fill="white"/>
</svg>
