<?xml version="1.0" encoding="utf-8"?><svg viewBox="0 0 46 40" xmlns="http://www.w3.org/2000/svg" xmlns:xlink="http://www.w3.org/1999/xlink"><style>:root>svg{display:none}:root>svg:target{display:block}</style><svg fill="none" viewBox="0 0 46 40" id="doneIcon" xmlns="http://www.w3.org/2000/svg"><path d="M39.532 17.386h.007v14.198c0 3.938-3.2 7.078-7.078 7.078H8.066c-3.939 0-7.079-3.2-7.079-7.078V16.951c0-.188.169-.357.357-.357.162 0 .291.142.291.291v14.699c0 3.575 2.928 6.43 6.43 6.43h24.389c3.575 0 6.43-2.927 6.43-6.43V16.951c0-.188.169-.357.357-.357.034 0 .111.023.19.1.078.079.101.155.101.192v.5z" stroke="currentColor"/><path d="M9.695 18.472h0a.606.606 0 01.857-.038h0l8.405 7.693.369.337.337-.368L42.676.95l-.368-.337.368.337a.606.606 0 11.895.82L19.81 27.73h0a.602.602 0 01-.857.037l-9.22-8.44a.606.606 0 01-.039-.856z" fill="currentColor" stroke="currentColor"/></svg><svg fill="none" viewBox="0 0 41 32" id="textIcon" xmlns="http://www.w3.org/2000/svg"><path d="M39.67 9.398h.006v14.199c0 3.938-3.2 7.078-7.078 7.078H8.203c-3.939 0-7.078-3.2-7.078-7.078V8.964c0-.188.168-.357.356-.357.162 0 .291.141.291.291v14.699c0 3.575 2.928 6.43 6.43 6.43h24.39c3.574 0 6.43-2.928 6.43-6.43V8.964c0-.188.168-.357.356-.357.034 0 .112.022.19.1.078.078.101.155.101.191v.5z" stroke="currentColor"/><path stroke="currentColor" stroke-linecap="round" d="M9.5 20.5h21M9.5 16.5h21M9.5 11.5h21M9.5 7.5h11M19.5 4.5h11M9.5.5h21"/></svg><svg fill="none" viewBox="0 0 40 40" id="uploadIcon" xmlns="http://www.w3.org/2000/svg"><path d="M39.14 17.927h.006v14.199c0 3.938-3.2 7.078-7.078 7.078H7.673c-3.938 0-7.078-3.2-7.078-7.078V17.492c0-.188.169-.356.357-.356.161 0 .29.141.29.291v14.699c0 3.575 2.929 6.43 6.431 6.43h24.389c3.575 0 6.43-2.928 6.43-6.43V17.492c0-.188.169-.356.357-.356.034 0 .111.022.19.1.078.078.1.155.1.191v.5z" stroke="currentColor"/><path d="M20.231.95v26.37a.369.369 0 01-.357.356.368.368 0 01-.356-.356V.95a.37.37 0 01.323-.355c.103.023.205.08.281.157.09.09.109.167.109.198z" stroke="currentColor"/><path d="M24.255 5.618a3.477 3.477 0 01.062.21v.065c0 .079-.029.152-.126.304a.35.35 0 01-.435-.094l-.001-.002-3.492-4.152-.382-.455-.383.455-3.492 4.152h0L16 6.11c-.075.093-.293.16-.495.04-.09-.088-.143-.296-.027-.482L19.61.75l.018-.022.012-.018a.149.149 0 01.033-.015.669.669 0 01.214-.029c.087 0 .158.031.325.14l4.043 4.813zM19.637.711h.001s0 0 0 0z" stroke="currentColor"/></svg></svg>