<?xml version="1.0" encoding="utf-8"?><svg viewBox="0 0 124 191" xmlns="http://www.w3.org/2000/svg" xmlns:xlink="http://www.w3.org/1999/xlink"><style>:root>svg{display:none}:root>svg:target{display:block}</style><svg fill="none" viewBox="0 0 124 191" id="loaderTimeIcon" xmlns="http://www.w3.org/2000/svg"><g stroke="#000" stroke-width="1.837" stroke-miterlimit="10" stroke-linecap="round" stroke-linejoin="round"><path d="M1.84 1h120.687c-9.645 38.504-41.395 64.94-69.09 93.375-27.695 28.435-49.516 53.413-47.039 93.029"/><path d="M121.689 1H1c9.644 38.504 41.395 64.94 69.088 93.375 27.694 28.435 46.533 55.569 44.058 95.185H5.859"/></g><path d="M101.243 172.225c0 1.477-.088 2.933-.247 4.356H22.54a39.32 39.32 0 01-.247-4.356c0-18.85 13.193-34.592 30.83-38.525 2.495-.563 4.217-2.847 4.217-5.394v-4.409c0-1.37-.597-2.688-1.651-3.566-1.248-1.018-2.284-2.39-2.916-4.234-1.125-3.304-.457-7.081 1.88-9.681 3.97-4.392 10.734-4.251 14.53.054 2.176 2.46 2.651 5.955 1.81 9.118-.686 2.617-1.985 4.199-3.513 5.234a4.214 4.214 0 00-1.845 3.496v2.829a6.819 6.819 0 005.288 6.658c17.374 4.128 30.32 19.765 30.32 38.42z" fill="url(#apaint0_linear_43_313)"/><path d="M61.763 61.901a8.783 8.783 0 100-17.567 8.783 8.783 0 000 17.567z" fill="url(#apaint1_linear_43_313)"/><defs><linearGradient id="apaint0_linear_43_313" x1="61.768" y1="103.181" x2="61.768" y2="176.581" gradientUnits="userSpaceOnUse"><stop/><stop offset="1" stop-color="#0B75A1"/></linearGradient><linearGradient id="apaint1_linear_43_313" x1="62.436" y1="60.776" x2="62.436" y2="44.172" gradientUnits="userSpaceOnUse"><stop/><stop offset="1" stop-color="#0B75A1"/></linearGradient></defs></svg></svg>