<?xml version="1.0" encoding="utf-8"?><svg viewBox="0 0 124 191" xmlns="http://www.w3.org/2000/svg" xmlns:xlink="http://www.w3.org/1999/xlink"><style>:root>svg{display:none}:root>svg:target{display:block}</style><svg fill="none" viewBox="0 0 45 45" id="accordionIcon" xmlns="http://www.w3.org/2000/svg"><path fill-rule="evenodd" clip-rule="evenodd" d="M9.294 15.294a1 1 0 011.416 0L22 26.584l11.29-11.29a1.003 1.003 0 011.634.324 1 1 0 01-.217 1.091L22.708 28.706a1 1 0 01-1.416 0L9.294 16.71a1 1 0 010-1.415z" fill="currentColor"/><circle cx="22.5" cy="22.5" r="22" transform="rotate(-180 22.5 22.5)" stroke="currentColor"/></svg><svg fill="none" viewBox="0 0 51 36" id="checkListIcon" xmlns="http://www.w3.org/2000/svg"><g fill="currentColor"><path d="M33.607 9.399H.725a.725.725 0 110-1.45h32.882a.725.725 0 110 1.45zM33.607 22.506H.725a.725.725 0 110-1.45h32.882a.725.725 0 110 1.45zM33.607 35.614H.725a.725.725 0 110-1.45h32.882a.725.725 0 110 1.45zM42.443 22.506H40.54a.725.725 0 110-1.45h1.903a.725.725 0 110 1.45zM42.443 35.614H40.54a.725.725 0 110-1.45h1.903a.725.725 0 110 1.45zM41.789 9.886a.726.726 0 01-.496-.195l-1.919-1.796a.725.725 0 01.991-1.058l1.408 1.317L49.764.21a.725.725 0 111.022 1.029l-8.488 8.435a.717.717 0 01-.51.211z"/></g></svg><svg fill="none" viewBox="0 0 47 47" id="closeIcon" xmlns="http://www.w3.org/2000/svg"><g fill="currentColor"><path d="M23.505 47c-6.019 0-12.038-2.292-16.62-6.876A23.362 23.362 0 010 23.5c0-6.28 2.445-12.183 6.884-16.624 9.166-9.167 24.079-9.166 33.242 0 9.165 9.167 9.165 24.082 0 33.25C35.545 44.709 29.526 47 23.506 47zm0-45.692c-5.684 0-11.367 2.164-15.696 6.493a22.059 22.059 0 00-6.5 15.7 22.06 22.06 0 006.5 15.7c8.655 8.656 22.738 8.655 31.393 0 8.653-8.658 8.653-22.743 0-31.4-4.327-4.328-10.013-6.493-15.696-6.493z"/><path d="M13.885 33.777a.654.654 0 01-.462-1.117l19.014-19.018a.653.653 0 11.925.925L14.348 33.586a.652.652 0 01-.463.191z"/><path d="M32.9 33.777a.652.652 0 01-.463-.191l-19.014-19.02a.654.654 0 11.925-.924L33.362 32.66a.654.654 0 01-.463 1.117z"/></g></svg><svg fill="none" viewBox="0 0 46 40" id="doneIcon" xmlns="http://www.w3.org/2000/svg"><path d="M39.532 17.386h.007v14.198c0 3.938-3.2 7.078-7.078 7.078H8.066c-3.939 0-7.079-3.2-7.079-7.078V16.951c0-.188.169-.357.357-.357.162 0 .291.142.291.291v14.699c0 3.575 2.928 6.43 6.43 6.43h24.389c3.575 0 6.43-2.927 6.43-6.43V16.951c0-.188.169-.357.357-.357.034 0 .111.023.19.1.078.079.101.155.101.192v.5z" stroke="currentColor"/><path d="M9.695 18.472h0a.606.606 0 01.857-.038h0l8.405 7.693.369.337.337-.368L42.676.95l-.368-.337.368.337a.606.606 0 11.895.82L19.81 27.73h0a.602.602 0 01-.857.037l-9.22-8.44a.606.606 0 01-.039-.856z" fill="currentColor" stroke="currentColor"/></svg><svg fill="none" viewBox="0 0 52 52" id="doneIcon2" xmlns="http://www.w3.org/2000/svg"><g fill="currentColor"><path d="M51.291 51.379H.71a.709.709 0 01-.709-.71V.71C0 .318.317 0 .709 0H51.29c.392 0 .709.318.709.709v49.96a.709.709 0 01-.709.71zM1.417 49.96h49.166V1.417H1.417v48.544z"/><path d="M26 33.903a.711.711 0 01-.544-.253l-12.55-15.011a.71.71 0 011.088-.91L26 32.089l12.005-14.36a.708.708 0 111.088.91l-12.55 15.01a.707.707 0 01-.543.254z"/></g></svg><svg fill="none" viewBox="0 0 55 56" id="loaderIcon" xmlns="http://www.w3.org/2000/svg"><path d="M27.5 14.807a.743.743 0 01-.743-.743V.744a.743.743 0 111.486 0v13.32a.743.743 0 01-.743.743zM27.5 55.011a.743.743 0 01-.743-.743v-13.32a.743.743 0 111.486 0v13.32c0 .41-.332.743-.743.743zM54.257 28.25H40.94a.743.743 0 110-1.488h13.317a.743.743 0 110 1.487zM14.061 28.25H.743a.743.743 0 110-1.488h13.318a.743.743 0 110 1.487zM37.003 18.745a.743.743 0 01-.526-1.27l9.418-9.418a.742.742 0 111.05 1.051l-9.416 9.419a.741.741 0 01-.526.218zM8.58 47.173a.743.743 0 01-.525-1.27l9.416-9.418a.742.742 0 111.052 1.051l-9.418 9.42a.741.741 0 01-.525.217zM46.42 47.173a.74.74 0 01-.525-.218l-9.418-9.419a.743.743 0 111.052-1.05l9.417 9.418a.743.743 0 01-.526 1.269zM17.997 18.745a.741.741 0 01-.526-.218L8.054 9.108a.743.743 0 111.051-1.051l9.418 9.419a.743.743 0 01-.526 1.269z" fill="currentColor"/></svg><svg fill="none" viewBox="0 0 124 191" id="loaderTimeIcon" xmlns="http://www.w3.org/2000/svg"><g stroke="currentColor" stroke-width="1.837" stroke-miterlimit="10" stroke-linecap="round" stroke-linejoin="round"><path d="M1.84 1h120.687c-9.645 38.504-41.395 64.94-69.09 93.375-27.695 28.435-49.516 53.413-47.039 93.029"/><path d="M121.689 1H1c9.644 38.504 41.395 64.94 69.088 93.375 27.694 28.435 46.533 55.569 44.058 95.185H5.859"/></g><path d="M101.243 172.225c0 1.477-.088 2.933-.247 4.356H22.54a39.32 39.32 0 01-.247-4.356c0-18.85 13.193-34.592 30.83-38.525 2.495-.563 4.217-2.847 4.217-5.394v-4.409c0-1.37-.597-2.688-1.651-3.566-1.248-1.018-2.284-2.39-2.916-4.234-1.125-3.304-.457-7.081 1.88-9.681 3.97-4.392 10.734-4.251 14.53.054 2.176 2.46 2.651 5.955 1.81 9.118-.686 2.617-1.985 4.199-3.513 5.234a4.214 4.214 0 00-1.845 3.496v2.829a6.819 6.819 0 005.288 6.658c17.374 4.128 30.32 19.765 30.32 38.42zM61.763 61.901a8.783 8.783 0 100-17.567 8.783 8.783 0 000 17.567z" fill="currentColor"/><defs><linearGradient id="gpaint0_linear_43_313" x1="61.768" y1="103.181" x2="61.768" y2="176.581" gradientUnits="userSpaceOnUse"><stop/><stop offset="1" stop-color="currentColor"/></linearGradient><linearGradient id="gpaint1_linear_43_313" x1="62.436" y1="60.776" x2="62.436" y2="44.172" gradientUnits="userSpaceOnUse"><stop/><stop offset="1" stop-color="currentColor"/></linearGradient></defs></svg><svg fill="none" viewBox="0 0 41 32" id="textIcon" xmlns="http://www.w3.org/2000/svg"><path d="M39.67 9.398h.006v14.199c0 3.938-3.2 7.078-7.078 7.078H8.203c-3.939 0-7.078-3.2-7.078-7.078V8.964c0-.188.168-.357.356-.357.162 0 .291.141.291.291v14.699c0 3.575 2.928 6.43 6.43 6.43h24.39c3.574 0 6.43-2.928 6.43-6.43V8.964c0-.188.168-.357.356-.357.034 0 .112.022.19.1.078.078.101.155.101.191v.5z" stroke="currentColor"/><path stroke="currentColor" stroke-linecap="round" d="M9.5 20.5h21M9.5 16.5h21M9.5 11.5h21M9.5 7.5h11M19.5 4.5h11M9.5.5h21"/></svg><svg fill="none" viewBox="0 0 40 40" id="uploadIcon" xmlns="http://www.w3.org/2000/svg"><path d="M39.14 17.927h.006v14.199c0 3.938-3.2 7.078-7.078 7.078H7.673c-3.938 0-7.078-3.2-7.078-7.078V17.492c0-.188.169-.356.357-.356.161 0 .29.141.29.291v14.699c0 3.575 2.929 6.43 6.431 6.43h24.389c3.575 0 6.43-2.928 6.43-6.43V17.492c0-.188.169-.356.357-.356.034 0 .111.022.19.1.078.078.1.155.1.191v.5z" stroke="currentColor"/><path d="M20.231.95v26.37a.369.369 0 01-.357.356.368.368 0 01-.356-.356V.95a.37.37 0 01.323-.355c.103.023.205.08.281.157.09.09.109.167.109.198z" stroke="currentColor"/><path d="M24.255 5.618a3.477 3.477 0 01.062.21v.065c0 .079-.029.152-.126.304a.35.35 0 01-.435-.094l-.001-.002-3.492-4.152-.382-.455-.383.455-3.492 4.152h0L16 6.11c-.075.093-.293.16-.495.04-.09-.088-.143-.296-.027-.482L19.61.75l.018-.022.012-.018a.149.149 0 01.033-.015.669.669 0 01.214-.029c.087 0 .158.031.325.14l4.043 4.813zM19.637.711h.001s0 0 0 0z" stroke="currentColor"/></svg></svg>