<svg width="45" height="45" viewBox="0 0 45 45" fill="none" xmlns="http://www.w3.org/2000/svg">
<path fill-rule="evenodd" clip-rule="evenodd" d="M9.29375 15.2937C9.38663 15.2006 9.49697 15.1267 9.61845 15.0763C9.73992 15.0259 9.87015 15 10.0017 15C10.1332 15 10.2634 15.0259 10.3849 15.0763C10.5064 15.1267 10.6167 15.2006 10.7096 15.2937L22.0003 26.5848L33.2909 15.2937C33.3839 15.2008 33.4943 15.127 33.6157 15.0767C33.7372 15.0264 33.8674 15.0005 33.9989 15.0005C34.1303 15.0005 34.2605 15.0264 34.382 15.0767C34.5034 15.127 34.6138 15.2008 34.7068 15.2937C34.7997 15.3867 34.8735 15.497 34.9238 15.6185C34.9741 15.7399 35 15.8701 35 16.0015C35 16.133 34.9741 16.2632 34.9238 16.3846C34.8735 16.506 34.7997 16.6164 34.7068 16.7094L22.7082 28.7063C22.6153 28.7994 22.505 28.8733 22.3835 28.9237C22.262 28.9741 22.1318 29 22.0003 29C21.8687 29 21.7385 28.9741 21.617 28.9237C21.4956 28.8733 21.3852 28.7994 21.2923 28.7063L9.29375 16.7094C9.20064 16.6165 9.12676 16.5062 9.07635 16.3847C9.02595 16.2632 9 16.133 9 16.0015C9 15.87 9.02595 15.7398 9.07635 15.6184C9.12676 15.4969 9.20064 15.3866 9.29375 15.2937Z" fill="#0D2B4E"/>
<circle cx="22.5" cy="22.5" r="22" transform="rotate(-180 22.5 22.5)" stroke="black"/>
</svg>
