<svg width="51" height="36" viewBox="0 0 51 36" fill="none" xmlns="http://www.w3.org/2000/svg">
<g id="svg">
<path id="Vector" d="M33.6073 9.39869H0.724841C0.324004 9.39869 0 9.0739 0 8.67371C0 8.27352 0.324004 7.94873 0.724841 7.94873H33.6073C34.0081 7.94873 34.3321 8.27352 34.3321 8.67371C34.3321 9.0739 34.0081 9.39869 33.6073 9.39869Z" fill="white"/>
<path id="Vector_2" d="M33.6073 22.5061H0.724841C0.324004 22.5061 0 22.1813 0 21.7811C0 21.3809 0.324004 21.0562 0.724841 21.0562H33.6073C34.0081 21.0562 34.3321 21.3809 34.3321 21.7811C34.3321 22.1813 34.0081 22.5061 33.6073 22.5061Z" fill="white"/>
<path id="Vector_3" d="M33.6073 35.614H0.724841C0.324004 35.614 0 35.2892 0 34.889C0 34.4889 0.324004 34.1641 0.724841 34.1641H33.6073C34.0081 34.1641 34.3321 34.4889 34.3321 34.889C34.3321 35.2892 34.0081 35.614 33.6073 35.614Z" fill="white"/>
<path id="Vector_4" d="M42.4429 22.5061H40.5402C40.1394 22.5061 39.8154 22.1813 39.8154 21.7811C39.8154 21.3809 40.1394 21.0562 40.5402 21.0562H42.4429C42.8438 21.0562 43.1678 21.3809 43.1678 21.7811C43.1678 22.1813 42.8438 22.5061 42.4429 22.5061Z" fill="white"/>
<path id="Vector_5" d="M42.4429 35.614H40.5402C40.1394 35.614 39.8154 35.2892 39.8154 34.889C39.8154 34.4889 40.1394 34.1641 40.5402 34.1641H42.4429C42.8438 34.1641 43.1678 34.4889 43.1678 34.889C43.1678 35.2892 42.8438 35.614 42.4429 35.614Z" fill="white"/>
<path id="Vector_6" d="M41.7886 9.88648C41.611 9.88648 41.4327 9.82122 41.2928 9.69072L39.3742 7.89495C39.0821 7.62163 39.0668 7.16274 39.3401 6.87058C39.6141 6.57696 40.0722 6.56319 40.365 6.83651L41.7727 8.15376L49.7641 0.210873C50.0482 -0.0718697 50.5063 -0.0696742 50.789 0.213793C51.0717 0.497986 51.0702 0.956883 50.7861 1.23963L42.2982 9.67479C42.1576 9.81616 41.9727 9.88648 41.7886 9.88648Z" fill="white"/>
</g>
</svg>
