<svg width="47" height="47" viewBox="0 0 47 47" fill="none" xmlns="http://www.w3.org/2000/svg">
<g id="svg">
<g id="svg_2">
<path id="Vector" d="M23.5051 47C17.4861 47 11.4671 44.7082 6.88444 40.1245C2.44505 35.6835 0 29.7796 0 23.4995C0 17.2195 2.44505 11.3156 6.88444 6.87521C16.0504 -2.29206 30.9626 -2.29141 40.1265 6.87521C49.2912 16.0418 49.2912 30.9573 40.1265 40.1245C35.5446 44.7088 29.5248 47 23.5051 47ZM23.5058 1.30824C17.821 1.30824 12.1375 3.47182 7.80934 7.80096C3.61655 11.9947 1.3082 17.5701 1.3082 23.5002C1.3082 29.4303 3.61655 35.0064 7.80934 39.2001C16.4644 47.8571 30.5466 47.8564 39.2016 39.2001C47.8554 30.5431 47.8554 16.4579 39.2016 7.80096C34.8748 3.47313 29.1893 1.30824 23.5058 1.30824Z" fill="#105E83"/>
<path id="Vector_2" d="M13.8852 33.7772C13.7178 33.7772 13.5503 33.7131 13.4228 33.5855C13.167 33.3297 13.167 32.9162 13.4228 32.6604L32.4369 13.6416C32.6926 13.3858 33.106 13.3858 33.3618 13.6416C33.6175 13.8974 33.6175 14.3109 33.3618 14.5667L14.3477 33.5855C14.2201 33.7131 14.0527 33.7772 13.8852 33.7772Z" fill="#105E83"/>
<path id="Vector_3" d="M32.8993 33.7772C32.7319 33.7772 32.5644 33.7131 32.4369 33.5855L13.4228 14.5667C13.167 14.3109 13.167 13.8974 13.4228 13.6416C13.6785 13.3858 14.0919 13.3858 14.3477 13.6416L33.3618 32.6604C33.6175 32.9162 33.6175 33.3297 33.3618 33.5855C33.2342 33.7131 33.0668 33.7772 32.8993 33.7772Z" fill="#105E83"/>
</g>
</g>
</svg>
