<svg width="52" height="52" viewBox="0 0 52 52" fill="none" xmlns="http://www.w3.org/2000/svg">
<g id="svg">
<path id="Vector" d="M51.2914 51.3786H0.708592C0.316741 51.3786 0 51.061 0 50.6698V0.708729C0 0.31751 0.316741 0 0.708592 0H51.2914C51.6833 0 52 0.31751 52 0.708729V50.6698C52 51.061 51.6833 51.3786 51.2914 51.3786ZM1.41718 49.9611H50.5828V1.41746H1.41718V49.9611Z" fill="white"/>
<path id="Vector_2" d="M26.0002 33.9034C25.7905 33.9034 25.5913 33.8106 25.456 33.6497L12.9061 18.6388C12.6553 18.3383 12.695 17.8911 12.9954 17.6402C13.2973 17.3886 13.743 17.4297 13.9938 17.7288L25.9995 32.0898L38.0051 17.7288C38.256 17.429 38.7017 17.3879 39.0036 17.6402C39.304 17.8911 39.3437 18.3383 39.0928 18.6388L26.543 33.6497C26.409 33.8106 26.2092 33.9034 26.0002 33.9034Z" fill="white"/>
</g>
</svg>
