<svg width="46" height="40" viewBox="0 0 46 40" fill="none" xmlns="http://www.w3.org/2000/svg">
<path d="M39.5321 17.3855H39.5386V31.584C39.5386 35.5224 36.3392 38.6621 32.4606 38.6621H8.06552C4.12715 38.6621 0.987427 35.4626 0.987427 31.584L0.987427 16.9509C0.987427 16.7628 1.15588 16.5944 1.34397 16.5944C1.50566 16.5944 1.63512 16.7357 1.63512 16.8855L1.63512 31.584C1.63512 35.1591 4.56296 38.0144 8.06552 38.0144H32.454C36.0291 38.0144 38.8844 35.0866 38.8844 31.584V16.9509C38.8844 16.7628 39.0529 16.5944 39.241 16.5944C39.2752 16.5944 39.3525 16.6168 39.4311 16.6949C39.5093 16.7727 39.5321 16.8494 39.5321 16.8855V17.3855Z" stroke="#10182B"/>
<path d="M9.69549 18.4724L9.69557 18.4723C9.92162 18.2253 10.305 18.2083 10.552 18.4344L10.552 18.4345L18.9567 26.1267L19.3256 26.4643L19.6631 26.0955L42.6764 0.951489L42.3077 0.61404L42.6764 0.951488C42.9024 0.704497 43.2859 0.687531 43.5329 0.913584C43.7799 1.13964 43.7968 1.5231 43.5708 1.77009L19.8106 27.7302L19.8105 27.7303C19.6973 27.854 19.5459 27.9198 19.3903 27.9267C19.2345 27.9336 19.0778 27.8814 18.9541 27.7682L9.73344 19.3289C9.48632 19.1027 9.46941 18.7194 9.69549 18.4724Z" fill="#10182B" stroke="#10182B"/>
</svg>
