<svg width="55" height="56" viewBox="0 0 55 56" fill="none" xmlns="http://www.w3.org/2000/svg">
<path d="M27.5002 14.8074C27.0892 14.8074 26.7569 14.4744 26.7569 14.064V0.743457C26.7569 0.333069 27.0892 0 27.5002 0C27.9113 0 28.2435 0.333069 28.2435 0.743457V14.064C28.2435 14.4751 27.9113 14.8074 27.5002 14.8074Z" fill="white"/>
<path d="M27.5002 55.0113C27.0892 55.0113 26.7569 54.6782 26.7569 54.2678V40.948C26.7569 40.5377 27.0892 40.2046 27.5002 40.2046C27.9113 40.2046 28.2435 40.5377 28.2435 40.948V54.2678C28.2435 54.6782 27.9113 55.0113 27.5002 55.0113Z" fill="white"/>
<path d="M54.2566 28.2491H40.9395C40.5284 28.2491 40.1962 27.9161 40.1962 27.5057C40.1962 27.0953 40.5284 26.7622 40.9395 26.7622H54.2566C54.6677 26.7622 55 27.0953 55 27.5057C55 27.9168 54.6677 28.2491 54.2566 28.2491Z" fill="white"/>
<path d="M14.0613 28.2491H0.743314C0.332261 28.2491 0 27.9161 0 27.5057C0 27.0953 0.332261 26.7622 0.743314 26.7622H14.0613C14.4723 26.7622 14.8046 27.0953 14.8046 27.5057C14.8046 27.9168 14.4723 28.2491 14.0613 28.2491Z" fill="white"/>
<path d="M37.0031 18.7449C36.8128 18.7449 36.6225 18.672 36.4775 18.527C36.1869 18.2363 36.1869 17.7664 36.4775 17.4758L45.8946 8.05689C46.1852 7.76619 46.655 7.76619 46.9456 8.05689C47.2363 8.34758 47.2363 8.81744 46.9456 9.10814L37.5286 18.527C37.3836 18.672 37.1934 18.7449 37.0031 18.7449Z" fill="white"/>
<path d="M8.57993 47.173C8.38964 47.173 8.19937 47.1002 8.05443 46.9552C7.76379 46.6645 7.76379 46.1946 8.05443 45.9039L17.4715 36.4851C17.7621 36.1944 18.2319 36.1944 18.5225 36.4851C18.8132 36.7758 18.8132 37.2457 18.5225 37.5364L9.10547 46.9552C8.96053 47.1002 8.77021 47.173 8.57993 47.173Z" fill="white"/>
<path d="M46.4201 47.173C46.2298 47.173 46.0395 47.1002 45.8946 46.9552L36.4775 37.5364C36.1869 37.2457 36.1869 36.7758 36.4775 36.4851C36.7682 36.1944 37.238 36.1944 37.5286 36.4851L46.9456 45.9039C47.2363 46.1946 47.2363 46.6652 46.9456 46.9552C46.8007 47.1002 46.6104 47.173 46.4201 47.173Z" fill="white"/>
<path d="M17.997 18.7449C17.8067 18.7449 17.6164 18.672 17.4715 18.527L8.05443 9.10814C7.76379 8.81744 7.76379 8.34758 8.05443 8.05689C8.34506 7.76619 8.81484 7.76619 9.10547 8.05689L18.5225 17.4758C18.8132 17.7664 18.8132 18.2363 18.5225 18.527C18.3776 18.672 18.1873 18.7449 17.997 18.7449Z" fill="white"/>
</svg>
