<svg width="41" height="32" viewBox="0 0 41 32" fill="none" xmlns="http://www.w3.org/2000/svg">
<path d="M39.6692 9.39823H39.6757L39.6757 23.5967C39.6757 27.5351 36.4762 30.6748 32.5976 30.6748L8.2026 30.6748C4.26423 30.6748 1.12451 27.4753 1.12451 23.5967L1.12451 8.96361C1.12451 8.77552 1.29296 8.60707 1.48105 8.60707C1.64275 8.60707 1.77221 8.74837 1.77221 8.89823L1.77221 23.5967C1.77221 27.1718 4.70005 30.0271 8.2026 30.0271L32.5911 30.0271C36.1662 30.0271 39.0215 27.0993 39.0215 23.5967L39.0215 8.96361C39.0215 8.77552 39.1899 8.60707 39.378 8.60707C39.4122 8.60707 39.4896 8.62947 39.5681 8.70761C39.6463 8.78538 39.6692 8.86208 39.6692 8.89823V9.39823Z" stroke="#10182B"/>
<line x1="9.5" y1="20.5" x2="30.5" y2="20.5" stroke="#10182B" stroke-linecap="round"/>
<line x1="9.5" y1="16.4995" x2="30.5" y2="16.4995" stroke="#10182B" stroke-linecap="round"/>
<line x1="9.5" y1="11.5" x2="30.5" y2="11.5" stroke="#10182B" stroke-linecap="round"/>
<line x1="9.5" y1="7.5" x2="20.5" y2="7.5" stroke="#10182B" stroke-linecap="round"/>
<line x1="19.5" y1="4.5" x2="30.5" y2="4.5" stroke="#10182B" stroke-linecap="round"/>
<line x1="9.5" y1="0.5" x2="30.5" y2="0.500002" stroke="#10182B" stroke-linecap="round"/>
</svg>
