<svg width="40" height="40" viewBox="0 0 40 40" fill="none" xmlns="http://www.w3.org/2000/svg">
<path d="M39.1399 17.927H39.1464L39.1464 32.1255C39.1464 36.0639 35.9469 39.2036 32.0683 39.2036L7.6733 39.2036C3.73494 39.2036 0.595215 36.0041 0.595215 32.1255L0.595215 17.4924C0.595215 17.3043 0.763665 17.1359 0.951754 17.1359C1.11345 17.1359 1.24291 17.2772 1.24291 17.427L1.24291 32.1255C1.24291 35.7006 4.17075 38.5559 7.6733 38.5559L32.0618 38.5559C35.6369 38.5559 38.4922 35.6281 38.4922 32.1255L38.4922 17.4924C38.4922 17.3043 38.6607 17.1359 38.8487 17.1359C38.8829 17.1359 38.9603 17.1583 39.0389 17.2364C39.117 17.3142 39.1399 17.3909 39.1399 17.427V17.927Z" stroke="#10182B"/>
<path d="M20.231 0.950064L20.231 27.3197C20.231 27.5078 20.0625 27.6763 19.8744 27.6763C19.6863 27.6763 19.5179 27.5078 19.5179 27.3197L19.5179 0.950064C19.5179 0.773102 19.667 0.613522 19.8413 0.595264C19.9444 0.618027 20.0456 0.674759 20.1223 0.751829C20.2113 0.841246 20.231 0.918911 20.231 0.950064Z" stroke="#10182B"/>
<path d="M24.2551 5.61831C24.2756 5.68096 24.293 5.73647 24.3068 5.78743C24.3108 5.80245 24.3143 5.81611 24.3173 5.82848V5.89318C24.3173 5.97156 24.2881 6.04528 24.1914 6.19706C24.0593 6.26646 23.8777 6.24829 23.7564 6.1027L23.7549 6.10099L20.2634 1.94906L19.8807 1.49401L19.498 1.94906L16.0065 6.10099L16.0064 6.10089L15.9987 6.11045C15.9239 6.20394 15.7058 6.27106 15.5041 6.15084C15.4138 6.06334 15.3609 5.85543 15.4766 5.66928L19.6097 0.748601L19.6275 0.727402L19.6397 0.70916C19.6439 0.706303 19.6537 0.70067 19.6727 0.693937C19.7177 0.677965 19.7894 0.665477 19.8872 0.665477C19.974 0.665477 20.045 0.696035 20.2116 0.80436L24.2551 5.61831ZM19.6371 0.711178C19.6371 0.71116 19.6374 0.710806 19.6383 0.710166C19.6376 0.710875 19.6372 0.711196 19.6371 0.711178Z" stroke="#10182B"/>
</svg>
