<svg width="124" height="191" viewBox="0 0 124 191" fill="none" xmlns="http://www.w3.org/2000/svg">
<g id="svg">
<g id="Group">
<path id="Vector" d="M1.83936 1H122.527C112.882 39.504 81.1317 65.94 53.437 94.3751C25.7422 122.81 3.92087 147.788 6.3984 187.404" stroke="black" stroke-width="1.8365" stroke-miterlimit="10" stroke-linecap="round" stroke-linejoin="round"/>
<path id="Vector_2" d="M121.689 1H1C10.6442 39.504 42.3948 65.94 70.0877 94.3751C97.7824 122.81 116.621 149.944 114.146 189.56H5.85939" stroke="black" stroke-width="1.8365" stroke-miterlimit="10" stroke-linecap="round" stroke-linejoin="round"/>
</g>
<path id="Vector_3" d="M101.243 172.225C101.243 173.702 101.155 175.158 100.996 176.581H22.5398C22.381 175.158 22.293 173.7 22.293 172.225C22.293 153.375 35.486 137.633 53.1234 133.7C55.6181 133.137 57.34 130.853 57.34 128.306V123.897C57.34 122.527 56.7431 121.209 55.6889 120.331C54.4415 119.313 53.4046 117.941 52.7733 116.097C51.6483 112.793 52.316 109.016 54.6539 106.416C58.6237 102.024 65.3867 102.165 69.1824 106.47C71.3595 108.93 71.834 112.425 70.9922 115.588C70.3073 118.205 69.0082 119.787 67.4796 120.822C66.3203 121.612 65.6354 122.913 65.6354 124.318V127.147C65.6354 130.327 67.8125 133.086 70.9233 133.805C88.2966 137.933 101.243 153.57 101.243 172.225Z" fill="url(#paint0_linear_43_313)"/>
<path id="Vector_4" d="M61.7628 61.901C66.6136 61.901 70.546 57.9686 70.546 53.1177C70.546 48.2669 66.6136 44.3345 61.7628 44.3345C56.9119 44.3345 52.9795 48.2669 52.9795 53.1177C52.9795 57.9686 56.9119 61.901 61.7628 61.901Z" fill="url(#paint1_linear_43_313)"/>
</g>
<defs>
<linearGradient id="paint0_linear_43_313" x1="61.7679" y1="103.181" x2="61.7679" y2="176.581" gradientUnits="userSpaceOnUse">
<stop/>
<stop offset="1" stop-color="#0B75A1"/>
</linearGradient>
<linearGradient id="paint1_linear_43_313" x1="62.4362" y1="60.7759" x2="62.4362" y2="44.1715" gradientUnits="userSpaceOnUse">
<stop/>
<stop offset="1" stop-color="#0B75A1"/>
</linearGradient>
</defs>
</svg>
